<?xml version="1.0" standalone="no"?>
<!DOCTYPE svg PUBLIC "-//W3C//DTD SVG 20010904//EN"
 "http://www.w3.org/TR/2001/REC-SVG-20010904/DTD/svg10.dtd">
<svg version="1.0" xmlns="http://www.w3.org/2000/svg"
 width="400.000000pt" height="400.000000pt" viewBox="0 0 400.000000 400.000000"
 preserveAspectRatio="xMidYMid meet">
<metadata>
Created by potrace 1.16, written by Peter Selinger 2001-2019
</metadata>
<g transform="translate(0.000000,400.000000) scale(0.100000,-0.100000)"
fill="#000000" stroke="none">
<path d="M1659 3061 c-55 -56 -28 -143 49 -157 31 -5 64 -33 205 -172 l167
-167 168 166 c95 95 181 172 200 179 42 16 62 45 62 88 0 67 -81 114 -141 82
-26 -14 -52 -68 -45 -94 4 -18 -18 -45 -122 -149 l-127 -127 -134 134 c-73 74
-131 138 -127 144 11 19 -16 73 -45 87 -43 23 -77 18 -110 -14z"/>
<path d="M1418 2865 c-74 -41 -45 -165 40 -167 25 -1 53 -24 163 -134 l134
-134 -125 -125 c-113 -113 -128 -125 -160 -125 -69 0 -110 -54 -90 -116 7 -19
21 -41 33 -49 49 -34 128 -5 141 52 5 18 69 90 174 196 l167 167 -168 168
c-92 92 -167 175 -167 185 0 30 -27 72 -55 85 -33 15 -54 15 -87 -3z"/>
<path d="M2644 2869 c-24 -12 -42 -42 -47 -77 -2 -14 -69 -89 -173 -193 l-169
-169 173 -173 c94 -95 172 -180 172 -190 0 -31 45 -67 85 -67 48 0 95 45 95
90 0 44 -47 90 -92 90 -29 0 -48 15 -161 128 l-127 127 133 133 c74 73 138
132 143 130 5 -1 23 1 41 5 60 12 82 108 34 151 -23 21 -79 29 -107 15z"/>
<path d="M1911 2106 c-141 -141 -169 -165 -202 -170 -77 -12 -106 -101 -50
-157 33 -33 67 -37 111 -14 28 14 60 79 46 93 -4 3 53 66 126 139 l133 133
126 -126 c94 -94 125 -131 122 -145 -13 -50 43 -109 102 -109 39 0 85 50 85
93 0 42 -31 83 -68 92 -18 4 -84 62 -192 170 -91 91 -167 165 -170 165 -3 0
-79 -74 -169 -164z"/>
<path d="M410 1438 c0 -6 36 -67 80 -135 44 -68 80 -126 80 -128 0 -2 -38 -63
-85 -136 -47 -72 -85 -136 -85 -140 0 -5 38 -9 85 -9 l84 0 42 75 c22 41 44
75 48 75 4 0 26 -34 50 -75 l42 -75 85 0 c58 0 84 4 84 12 0 6 -37 68 -81 137
-45 69 -82 131 -82 136 0 6 34 63 76 128 43 65 77 124 77 132 0 12 -16 15 -72
15 -40 0 -78 -4 -84 -8 -7 -4 -30 -38 -52 -75 l-39 -69 -38 64 c-21 34 -45 69
-53 76 -21 16 -162 17 -162 0z"/>
<path d="M975 1438 c-3 -8 -4 -132 -3 -278 l3 -265 198 -3 197 -2 0 64 0 65
-122 3 -123 3 0 40 0 40 93 1 c51 1 94 3 96 5 8 8 9 105 2 117 -5 8 -39 12
-102 12 l-95 0 3 38 3 37 120 5 120 5 0 60 0 60 -193 3 c-150 2 -194 0 -197
-10z"/>
<path d="M1445 1437 c-3 -7 -4 -131 -3 -277 l3 -265 68 -3 67 -3 0 125 c0 69
-5 148 -11 176 -16 77 -5 83 19 10 13 -37 57 -118 102 -187 l79 -123 71 0 70
0 -2 278 -3 277 -65 0 -65 0 1 -135 c1 -98 5 -147 17 -177 24 -64 4 -52 -25
15 -13 31 -60 112 -103 180 l-78 122 -69 0 c-46 0 -70 -4 -73 -13z"/>
<path d="M2005 1437 c-3 -7 -4 -131 -3 -277 l3 -265 139 -3 c167 -3 217 9 269
68 45 49 61 122 55 245 -8 140 -46 199 -151 230 -66 20 -305 21 -312 2z m259
-131 c44 -18 59 -64 54 -163 -3 -67 -6 -78 -31 -99 -22 -19 -40 -24 -83 -24
l-54 0 0 143 c0 79 3 147 7 150 11 12 72 8 107 -7z"/>
<path d="M2545 1438 c-3 -7 -4 -132 -3 -278 l3 -265 73 -3 72 -3 -2 278 -3
278 -68 3 c-48 2 -69 -1 -72 -10z"/>
<path d="M2757 1444 c-4 -4 -7 -33 -7 -65 l0 -58 73 -3 72 -3 5 -210 5 -210
72 -3 73 -3 2 213 3 213 73 3 73 3 -3 62 -3 62 -216 3 c-118 1 -218 -1 -222
-4z"/>
<path d="M3220 1440 c0 -7 42 -82 93 -168 l92 -157 5 -110 5 -110 73 -3 72 -3
0 107 0 107 95 162 c52 89 95 167 95 173 0 8 -24 12 -75 12 -85 0 -80 4 -147
-119 l-40 -74 -28 49 c-15 27 -38 69 -51 94 l-24 45 -83 3 c-56 2 -82 -1 -82
-8z"/>
</g>
</svg>
