<?xml version="1.0" standalone="no"?>
<!DOCTYPE svg PUBLIC "-//W3C//DTD SVG 20010904//EN"
 "http://www.w3.org/TR/2001/REC-SVG-20010904/DTD/svg10.dtd">
<svg version="1.0" xmlns="http://www.w3.org/2000/svg"
 width="140.000000pt" height="140.000000pt" viewBox="0 0 140.000000 140.000000"
 preserveAspectRatio="xMidYMid meet">

<g transform="translate(0.000000,140.000000) scale(0.100000,-0.100000)"
fill="#000000" stroke="none">
<path d="M0 1338 l0 -63 20 33 c11 18 41 46 67 62 l47 30 -67 0 -67 0 0 -62z"/>
<path d="M1302 1380 c20 -11 50 -36 67 -57 l31 -38 0 58 0 57 -67 0 -68 -1 37
-19z"/>
<path d="M391 1134 c-12 -15 -21 -32 -21 -39 0 -23 41 -65 63 -65 14 0 63 -41
142 -119 l120 -120 120 116 c66 63 132 119 147 125 14 5 32 22 39 39 10 26 9
34 -8 57 -39 53 -116 31 -118 -34 -1 -17 -29 -53 -91 -115 l-89 -89 -92 92
c-51 51 -93 100 -93 109 0 30 -40 69 -70 69 -19 0 -36 -9 -49 -26z"/>
<path d="M212 987 c-12 -13 -22 -33 -22 -45 0 -29 34 -62 63 -62 15 0 53 -31
117 -95 l95 -95 -90 -90 c-70 -70 -96 -90 -117 -90 -64 0 -88 -74 -36 -113 34
-26 74 -16 90 21 6 15 66 82 132 150 l121 123 -122 118 c-84 80 -123 124 -123
139 0 29 -34 62 -63 62 -13 0 -33 -10 -45 -23z"/>
<path d="M1090 990 c-11 -11 -20 -29 -20 -41 0 -14 -42 -62 -122 -139 l-123
-119 123 -123 c67 -68 122 -129 122 -136 0 -19 38 -52 60 -52 27 0 70 43 70
70 0 29 -35 60 -68 60 -21 0 -47 20 -117 90 l-90 90 95 95 c64 64 102 95 117
95 30 0 63 34 63 63 0 29 -39 67 -68 67 -12 0 -31 -9 -42 -20z"/>
<path d="M575 460 c-66 -66 -128 -120 -138 -120 -10 0 -29 -11 -43 -26 -43
-42 -15 -107 47 -107 36 0 69 32 69 67 0 22 165 196 185 196 6 0 47 -37 93
-83 55 -55 82 -90 82 -105 0 -55 47 -90 95 -72 57 22 55 98 -2 122 -16 6 -82
65 -148 130 l-120 118 -120 -120z"/>
<path d="M0 57 l0 -57 68 0 67 1 -37 19 c-20 11 -50 36 -67 57 l-31 38 0 -58z"/>
<path d="M1367 75 c-15 -19 -44 -44 -65 -55 l-37 -19 68 -1 67 0 0 55 c0 30
-1 55 -2 55 -2 0 -16 -16 -31 -35z"/>
</g>
</svg>
